  0
SECTION
  2
HEADER
  9
$ACADVER
  1
AC1014
  9
$HANDSEED
  5
FFFF
  9
$MEASUREMENT
 70
     1
  0
ENDSEC
  0
SECTION
  2
TABLES
  0
TABLE
  2
VPORT
  5
8
330
0
100
AcDbSymbolTable
 70
     4
  0
VPORT
  5
2E
330
8
100
AcDbSymbolTableRecord
100
AcDbViewportTableRecord
  2
*ACTIVE
 70
     0
 10
0.0
 20
0.0
 11
1.0
 21
1.0
 12
210.0
 22
148.5
 13
0.0
 23
0.0
 14
10.0
 24
10.0
 15
10.0
 25
10.0
 16
0.0
 26
0.0
 36
1.0
 17
0.0
 27
0.0
 37
0.0
 40
341.0
 41
1.24
 42
50.0
 43
0.0
 44
0.0
 50
0.0
 51
0.0
 71
     0
 72
   100
 73
     1
 74
     3
 75
     0
 76
     0
 77
     0
 78
     0
  0
ENDTAB
  0
TABLE
  2
LTYPE
  5
5
330
0
100
AcDbSymbolTable
 70
     1
  0
LTYPE
  5
14
330
5
100
AcDbSymbolTableRecord
100
AcDbLinetypeTableRecord
  2
BYBLOCK
 70
     0
  3

 72
    65
 73
     0
 40
0.0
  0
LTYPE
  5
15
330
5
100
AcDbSymbolTableRecord
100
AcDbLinetypeTableRecord
  2
BYLAYER
 70
     0
  3

 72
    65
 73
     0
 40
0.0
  0
LTYPE
  5
16
330
5
100
AcDbSymbolTableRecord
100
AcDbLinetypeTableRecord
  2
CONTINUOUS
 70
     0
  3
Solid line
 72
    65
 73
     0
 40
0.0
  0
ENDTAB
  0
TABLE
  2
LAYER
  5
2
100
AcDbSymbolTable
 70
1
  0
LAYER
  5
50
100
AcDbSymbolTableRecord
100
AcDbLayerTableRecord
  2
0
 70
0
  6
CONTINUOUS
  0
ENDTAB
  0
TABLE
  2
STYLE
  5
3
330
0
100
AcDbSymbolTable
 70
     1
  0
STYLE
  5
11
330
3
100
AcDbSymbolTableRecord
100
AcDbTextStyleTableRecord
  2
STANDARD
 70
     0
 40
0.0
 41
1.0
 50
0.0
 71
     0
 42
2.5
  3
txt
  4

  0
ENDTAB
  0
TABLE
  2
VIEW
  5
6
330
0
100
AcDbSymbolTable
 70
     0
  0
ENDTAB
  0
TABLE
  2
UCS
  5
7
330
0
100
AcDbSymbolTable
 70
     0
  0
ENDTAB
  0
TABLE
  2
APPID
  5
9
330
0
100
AcDbSymbolTable
 70
     2
  0
APPID
  5
12
330
9
100
AcDbSymbolTableRecord
100
AcDbRegAppTableRecord
  2
ACAD
 70
     0
  0
ENDTAB
  0
TABLE
  2
DIMSTYLE
  5
A
330
0
100
AcDbSymbolTable
 70
     1
  0
DIMSTYLE
105
27
330
A
100
AcDbSymbolTableRecord
100
AcDbDimStyleTableRecord
  2
ISO-25
 70
     0
  3

  4

  5

  6

  7

 40
1.0
 41
2.5
 42
0.625
 43
3.75
 44
1.25
 45
0.0
 46
0.0
 47
0.0
 48
0.0
140
2.5
141
2.5
142
0.0
143
0.03937007874016
144
1.0
145
0.0
146
1.0
147
0.625
 71
     0
 72
     0
 73
     0
 74
     0
 75
     0
 76
     0
 77
     1
 78
     8
170
     0
171
     3
172
     1
173
     0
174
     0
175
     0
176
     0
177
     0
178
     0
270
     2
271
     2
272
     2
273
     2
274
     3
340
11
275
     0
280
     0
281
     0
282
     0
283
     0
284
     8
285
     0
286
     0
287
     3
288
     0
  0
ENDTAB
  0
TABLE
  2
BLOCK_RECORD
  5
1
330
0
100
AcDbSymbolTable
 70
     1
  0
BLOCK_RECORD
  5
1F
330
1
100
AcDbSymbolTableRecord
100
AcDbBlockTableRecord
  2
*MODEL_SPACE
  0
BLOCK_RECORD
  5
1B
330
1
100
AcDbSymbolTableRecord
100
AcDbBlockTableRecord
  2
*PAPER_SPACE
  0
ENDTAB
  0
ENDSEC
  0
SECTION
  2
BLOCKS
  0
BLOCK
  5
20
330
1F
100
AcDbEntity
  8
0
100
AcDbBlockBegin
  2
*MODEL_SPACE
 70
     0
 10
0.0
 20
0.0
 30
0.0
  3
*MODEL_SPACE
  1

  0
ENDBLK
  5
21
330
1F
100
AcDbEntity
  8
0
100
AcDbBlockEnd
  0
BLOCK
  5
1C
330
1B
100
AcDbEntity
 67
     1
  8
0
100
AcDbBlockBegin
  2
*PAPER_SPACE
  1

  0
ENDBLK
  5
1D
330
1B
100
AcDbEntity
 67
     1
  8
0
100
AcDbBlockEnd
  0
ENDSEC
  0
SECTION
  2
ENTITIES
  0
SPLINE
  5
100
100
AcDbEntity
  8
0
 62
5
100
AcDbSpline
 70
8
 71
3
 72
8
 73
4
 74
0
 40
0
 40
0
 40
0
 40
0
 40
1
 40
1
 40
1
 40
1
 10
38.350007
 20
130.715501
 30
0.0
 10
38.350007
 20
131.318304
 30
0.0
 10
38.289204
 20
131.403485
 30
0.0
 10
37.858593
 20
131.403485
 30
0.0
  0
SPLINE
  5
101
100
AcDbEntity
  8
0
 62
5
100
AcDbSpline
 70
8
 71
3
 72
8
 73
4
 74
0
 40
0
 40
0
 40
0
 40
0
 40
1
 40
1
 40
1
 40
1
 10
37.858593
 20
131.403485
 30
0.0
 10
37.428017
 20
131.403485
 30
0.0
 10
37.367174
 20
131.318299
 30
0.0
 10
37.367174
 20
130.715501
 30
0.0
  0
SPLINE
  5
102
100
AcDbEntity
  8
0
 62
5
100
AcDbSpline
 70
8
 71
3
 72
8
 73
4
 74
0
 40
0
 40
0
 40
0
 40
0
 40
1
 40
1
 40
1
 40
1
 10
37.367174
 20
130.715501
 30
0.0
 10
37.367174
 20
130.112693
 30
0.0
 10
37.428048
 20
130.027516
 30
0.0
 10
37.858593
 20
130.027516
 30
0.0
  0
SPLINE
  5
103
100
AcDbEntity
  8
0
 62
5
100
AcDbSpline
 70
8
 71
3
 72
8
 73
4
 74
0
 40
0
 40
0
 40
0
 40
0
 40
1
 40
1
 40
1
 40
1
 10
37.858593
 20
130.027516
 30
0.0
 10
38.289174
 20
130.027516
 30
0.0
 10
38.350007
 20
130.112708
 30
0.0
 10
38.350007
 20
130.715501
 30
0.0
  0
SPLINE
  5
104
100
AcDbEntity
  8
0
 62
5
100
AcDbSpline
 70
8
 71
3
 72
8
 73
4
 74
0
 40
0
 40
0
 40
0
 40
0
 40
1
 40
1
 40
1
 40
1
 10
36.580907
 20
130.715501
 30
0.0
 10
36.580907
 20
131.737648
 30
0.0
 10
36.554135
 20
131.796616
 30
0.0
 10
36.089493
 20
131.796616
 30
0.0
  0
SPLINE
  5
105
100
AcDbEntity
  8
0
 62
5
100
AcDbSpline
 70
8
 71
3
 72
8
 73
4
 74
0
 40
0
 40
0
 40
0
 40
0
 40
1
 40
1
 40
1
 40
1
 10
36.089493
 20
131.796616
 30
0.0
 10
35.624881
 20
131.796616
 30
0.0
 10
35.598074
 20
131.737643
 30
0.0
 10
35.598074
 20
130.715501
 30
0.0
  0
SPLINE
  5
106
100
AcDbEntity
  8
0
 62
5
100
AcDbSpline
 70
8
 71
3
 72
8
 73
4
 74
0
 40
0
 40
0
 40
0
 40
0
 40
1
 40
1
 40
1
 40
1
 10
35.598074
 20
130.715501
 30
0.0
 10
35.598074
 20
129.693354
 30
0.0
 10
35.624851
 20
129.634386
 30
0.0
 10
36.089493
 20
129.634386
 30
0.0
  0
SPLINE
  5
107
100
AcDbEntity
  8
0
 62
5
100
AcDbSpline
 70
8
 71
3
 72
8
 73
4
 74
0
 40
0
 40
0
 40
0
 40
0
 40
1
 40
1
 40
1
 40
1
 10
36.089493
 20
129.634386
 30
0.0
 10
36.554110
 20
129.634386
 30
0.0
 10
36.580907
 20
129.693359
 30
0.0
 10
36.580907
 20
130.715501
 30
0.0
  0
SPLINE
  5
108
100
AcDbEntity
  8
0
 62
5
100
AcDbSpline
 70
8
 71
3
 72
8
 73
4
 74
0
 40
0
 40
0
 40
0
 40
0
 40
1
 40
1
 40
1
 40
1
 10
35.008378
 20
130.715501
 30
0.0
 10
35.008378
 20
131.130476
 30
0.0
 10
34.916643
 20
131.206915
 30
0.0
 10
34.418676
 20
131.206915
 30
0.0
  0
SPLINE
  5
109
100
AcDbEntity
  8
0
 62
5
100
AcDbSpline
 70
8
 71
3
 72
8
 73
4
 74
0
 40
0
 40
0
 40
0
 40
0
 40
1
 40
1
 40
1
 40
1
 10
34.418676
 20
131.206915
 30
0.0
 10
33.977895
 20
131.206915
 30
0.0
 10
33.828974
 20
131.115906
 30
0.0
 10
33.828974
 20
130.846545
 30
0.0
  0
SPLINE
  5
10a
100
AcDbEntity
  8
0
 62
5
100
AcDbSpline
 70
8
 71
3
 72
8
 73
4
 74
0
 40
0
 40
0
 40
0
 40
0
 40
1
 40
1
 40
1
 40
1
 10
33.828974
 20
130.846545
 30
0.0
 10
33.828974
 20
130.369177
 30
0.0
 10
33.996985
 20
130.224082
 30
0.0
 10
34.549725
 20
130.224082
 30
0.0
  0
SPLINE
  5
10b
100
AcDbEntity
  8
0
 62
5
100
AcDbSpline
 70
8
 71
3
 72
8
 73
4
 74
0
 40
0
 40
0
 40
0
 40
0
 40
1
 40
1
 40
1
 40
1
 10
34.549725
 20
130.224082
 30
0.0
 10
34.907911
 20
130.224082
 30
0.0
 10
35.008378
 20
130.331732
 30
0.0
 10
35.008378
 20
130.715501
 30
0.0
  0
SPLINE
  5
10c
100
AcDbEntity
  8
0
 62
5
100
AcDbSpline
 70
8
 71
3
 72
8
 73
4
 74
0
 40
0
 40
0
 40
0
 40
0
 40
1
 40
1
 40
1
 40
1
 10
33.239273
 20
130.813784
 30
0.0
 10
33.239273
 20
131.521423
 30
0.0
 10
33.190134
 20
131.600051
 30
0.0
 10
32.747859
 20
131.600051
 30
0.0
  0
SPLINE
  5
10d
100
AcDbEntity
  8
0
 62
5
100
AcDbSpline
 70
8
 71
3
 72
8
 73
4
 74
0
 40
0
 40
0
 40
0
 40
0
 40
1
 40
1
 40
1
 40
1
 10
32.747859
 20
131.600051
 30
0.0
 10
32.305584
 20
131.600051
 30
0.0
 10
32.256440
 20
131.521423
 30
0.0
 10
32.256440
 20
130.813784
 30
0.0
  0
SPLINE
  5
10e
100
AcDbEntity
  8
0
 62
5
100
AcDbSpline
 70
8
 71
3
 72
8
 73
4
 74
0
 40
0
 40
0
 40
0
 40
0
 40
1
 40
1
 40
1
 40
1
 10
32.256440
 20
130.813784
 30
0.0
 10
32.256440
 20
130.106145
 30
0.0
 10
32.305579
 20
130.027516
 30
0.0
 10
32.747859
 20
130.027516
 30
0.0
  0
SPLINE
  5
10f
100
AcDbEntity
  8
0
 62
5
100
AcDbSpline
 70
8
 71
3
 72
8
 73
4
 74
0
 40
0
 40
0
 40
0
 40
0
 40
1
 40
1
 40
1
 40
1
 10
32.747859
 20
130.027516
 30
0.0
 10
33.190134
 20
130.027516
 30
0.0
 10
33.239273
 20
130.106145
 30
0.0
 10
33.239273
 20
130.813784
 30
0.0
  0
SPLINE
  5
110
100
AcDbEntity
  8
0
 62
5
100
AcDbSpline
 70
8
 71
3
 72
8
 73
4
 74
0
 40
0
 40
0
 40
0
 40
0
 40
1
 40
1
 40
1
 40
1
 10
41.298515
 20
127.948440
 30
0.0
 10
41.298515
 20
129.089200
 30
0.0
 10
41.355396
 20
129.267894
 30
0.0
 10
41.888217
 20
129.800705
 30
0.0
  0
SPLINE
  5
111
100
AcDbEntity
  8
0
 62
5
100
AcDbSpline
 70
8
 71
3
 72
8
 73
4
 74
0
 40
0
 40
0
 40
0
 40
0
 40
1
 40
1
 40
1
 40
1
 10
41.888217
 20
129.800705
 30
0.0
 10
42.604080
 20
130.516573
 30
0.0
 10
42.635068
 20
131.067626
 30
0.0
 10
41.995445
 20
131.707264
 30
0.0
  0
SPLINE
  5
112
100
AcDbEntity
  8
0
 62
5
100
AcDbSpline
 70
8
 71
3
 72
8
 73
4
 74
0
 40
0
 40
0
 40
0
 40
0
 40
1
 40
1
 40
1
 40
1
 10
41.995445
 20
131.707264
 30
0.0
 10
41.336442
 20
132.366267
 30
0.0
 10
40.602875
 20
132.328325
 30
0.0
 10
39.922556
 20
131.600051
 30
0.0
  0
SPLINE
  5
113
100
AcDbEntity
  8
0
 62
5
100
AcDbSpline
 70
8
 71
3
 72
8
 73
4
 74
0
 40
0
 40
0
 40
0
 40
0
 40
1
 40
1
 40
1
 40
1
 10
39.922556
 20
131.600051
 30
0.0
 10
39.619590
 20
131.275713
 30
0.0
 10
39.274506
 20
131.010349
 30
0.0
 10
39.155710
 20
131.010349
 30
0.0
  0
SPLINE
  5
114
100
AcDbEntity
  8
0
 62
5
100
AcDbSpline
 70
8
 71
3
 72
8
 73
4
 74
0
 40
0
 40
0
 40
0
 40
0
 40
1
 40
1
 40
1
 40
1
 10
39.155710
 20
131.010349
 30
0.0
 10
39.036919
 20
131.010349
 30
0.0
 10
38.939724
 20
130.921886
 30
0.0
 10
38.939724
 20
130.813784
 30
0.0
  0
SPLINE
  5
115
100
AcDbEntity
  8
0
 62
5
100
AcDbSpline
 70
8
 71
3
 72
8
 73
4
 74
0
 40
0
 40
0
 40
0
 40
0
 40
1
 40
1
 40
1
 40
1
 10
38.939724
 20
130.813784
 30
0.0
 10
38.939724
 20
130.705666
 30
0.0
 10
39.034120
 20
130.617218
 30
0.0
 10
39.149492
 20
130.617218
 30
0.0
  0
SPLINE
  5
116
100
AcDbEntity
  8
0
 62
5
100
AcDbSpline
 70
8
 71
3
 72
8
 73
4
 74
0
 40
0
 40
0
 40
0
 40
0
 40
1
 40
1
 40
1
 40
1
 10
39.149492
 20
130.617218
 30
0.0
 10
39.264854
 20
130.617218
 30
0.0
 10
39.662913
 20
130.295253
 30
0.0
 10
40.034042
 20
129.901736
 30
0.0
  0
SPLINE
  5
117
100
AcDbEntity
  8
0
 62
5
100
AcDbSpline
 70
8
 71
3
 72
8
 73
4
 74
0
 40
0
 40
0
 40
0
 40
0
 40
1
 40
1
 40
1
 40
1
 10
40.034042
 20
129.901736
 30
0.0
 10
40.656982
 20
129.241229
 30
0.0
 10
40.708823
 20
129.090206
 30
0.0
 10
40.708823
 20
127.936070
 30
0.0
  0
SPLINE
  5
118
100
AcDbEntity
  8
0
 62
5
100
AcDbSpline
 70
8
 71
3
 72
8
 73
4
 74
0
 40
0
 40
0
 40
0
 40
0
 40
1
 40
1
 40
1
 40
1
 10
16.334557
 20
127.936070
 30
0.0
 10
16.334557
 20
129.090206
 30
0.0
 10
16.386393
 20
129.241229
 30
0.0
 10
17.009338
 20
129.901736
 30
0.0
  0
SPLINE
  5
119
100
AcDbEntity
  8
0
 62
5
100
AcDbSpline
 70
8
 71
3
 72
8
 73
4
 74
0
 40
0
 40
0
 40
0
 40
0
 40
1
 40
1
 40
1
 40
1
 10
17.009338
 20
129.901736
 30
0.0
 10
17.380473
 20
130.295253
 30
0.0
 10
17.789190
 20
130.617218
 30
0.0
 10
17.917597
 20
130.617218
 30
0.0
  0
SPLINE
  5
11a
100
AcDbEntity
  8
0
 62
5
100
AcDbSpline
 70
8
 71
3
 72
8
 73
4
 74
0
 40
0
 40
0
 40
0
 40
0
 40
1
 40
1
 40
1
 40
1
 10
17.917597
 20
130.617218
 30
0.0
 10
18.046014
 20
130.617218
 30
0.0
 10
17.786482
 20
130.971035
 30
0.0
 10
17.340869
 20
131.403485
 30
0.0
  0
SPLINE
  5
11b
100
AcDbEntity
  8
0
 62
5
100
AcDbSpline
 70
8
 71
3
 72
8
 73
4
 74
0
 40
0
 40
0
 40
0
 40
0
 40
1
 40
1
 40
1
 40
1
 10
17.340869
 20
131.403485
 30
0.0
 10
16.391915
 20
132.324413
 30
0.0
 10
15.750118
 20
132.409442
 30
0.0
 10
15.047945
 20
131.707269
 30
0.0
  0
SPLINE
  5
11c
100
AcDbEntity
  8
0
 62
5
100
AcDbSpline
 70
8
 71
3
 72
8
 73
4
 74
0
 40
0
 40
0
 40
0
 40
0
 40
1
 40
1
 40
1
 40
1
 10
15.047945
 20
131.707269
 30
0.0
 10
14.408307
 20
131.067631
 30
0.0
 10
14.439295
 20
130.516573
 30
0.0
 10
15.155164
 20
129.800710
 30
0.0
  0
SPLINE
  5
11d
100
AcDbEntity
  8
0
 62
5
100
AcDbSpline
 70
8
 71
3
 72
8
 73
4
 74
0
 40
0
 40
0
 40
0
 40
0
 40
1
 40
1
 40
1
 40
1
 10
15.155164
 20
129.800710
 30
0.0
 10
15.687975
 20
129.267899
 30
0.0
 10
15.744860
 20
129.089205
 30
0.0
 10
15.744860
 20
127.948445
 30
0.0
  0
SPLINE
  5
11e
100
AcDbEntity
  8
0
 62
5
100
AcDbSpline
 70
8
 71
3
 72
8
 73
4
 74
0
 40
0
 40
0
 40
0
 40
0
 40
1
 40
1
 40
1
 40
1
 10
12.533782
 20
118.282658
 30
0.0
 10
12.359929
 20
107.048568
 30
0.0
 10
12.373599
 20
95.193042
 30
0.0
 10
12.560757
 20
94.898565
 30
0.0
  0
SPLINE
  5
11f
100
AcDbEntity
  8
0
 62
5
100
AcDbSpline
 70
8
 71
3
 72
8
 73
4
 74
0
 40
0
 40
0
 40
0
 40
0
 40
1
 40
1
 40
1
 40
1
 10
12.560757
 20
94.898565
 30
0.0
 10
12.659222
 20
94.743604
 30
0.0
 10
13.419693
 20
94.640430
 30
0.0
 10
14.734011
 20
94.603711
 30
0.0
  0
SPLINE
  5
120
100
AcDbEntity
  8
0
 62
5
100
AcDbSpline
 70
8
 71
3
 72
8
 73
4
 74
0
 40
0
 40
0
 40
0
 40
0
 40
1
 40
1
 40
1
 40
1
 10
14.073901
 20
90.647250
 30
0.0
 10
12.411009
 20
88.229079
 30
0.0
 10
11.435385
 20
86.634248
 30
0.0
 10
11.506159
 20
86.449814
 30
0.0
  0
SPLINE
  5
121
100
AcDbEntity
  8
0
 62
5
100
AcDbSpline
 70
8
 71
3
 72
8
 73
4
 74
0
 40
0
 40
0
 40
0
 40
0
 40
1
 40
1
 40
1
 40
1
 10
11.506159
 20
86.449814
 30
0.0
 10
11.568938
 20
86.286212
 30
0.0
 10
11.730126
 20
86.195488
 30
0.0
 10
11.864350
 20
86.248203
 30
0.0
  0
SPLINE
  5
122
100
AcDbEntity
  8
0
 62
5
100
AcDbSpline
 70
8
 71
3
 72
8
 73
4
 74
0
 40
0
 40
0
 40
0
 40
0
 40
1
 40
1
 40
1
 40
1
 10
11.864350
 20
86.248203
 30
0.0
 10
11.998584
 20
86.300903
 30
0.0
 10
16.531158
 20
88.278212
 30
0.0
 10
21.936689
 20
90.642195
 30
0.0
  0
SPLINE
  5
123
100
AcDbEntity
  8
0
 62
5
100
AcDbSpline
 70
8
 71
3
 72
8
 73
4
 74
0
 40
0
 40
0
 40
0
 40
0
 40
1
 40
1
 40
1
 40
1
 10
31.470173
 20
130.715501
 30
0.0
 10
31.470173
 20
131.737648
 30
0.0
 10
31.443401
 20
131.796616
 30
0.0
 10
30.978754
 20
131.796616
 30
0.0
  0
SPLINE
  5
124
100
AcDbEntity
  8
0
 62
5
100
AcDbSpline
 70
8
 71
3
 72
8
 73
4
 74
0
 40
0
 40
0
 40
0
 40
0
 40
1
 40
1
 40
1
 40
1
 10
30.978754
 20
131.796616
 30
0.0
 10
30.514147
 20
131.796616
 30
0.0
 10
30.487340
 20
131.737643
 30
0.0
 10
30.487340
 20
130.715501
 30
0.0
  0
SPLINE
  5
125
100
AcDbEntity
  8
0
 62
5
100
AcDbSpline
 70
8
 71
3
 72
8
 73
4
 74
0
 40
0
 40
0
 40
0
 40
0
 40
1
 40
1
 40
1
 40
1
 10
30.487340
 20
130.715501
 30
0.0
 10
30.487340
 20
129.693354
 30
0.0
 10
30.514117
 20
129.634386
 30
0.0
 10
30.978754
 20
129.634386
 30
0.0
  0
SPLINE
  5
126
100
AcDbEntity
  8
0
 62
5
100
AcDbSpline
 70
8
 71
3
 72
8
 73
4
 74
0
 40
0
 40
0
 40
0
 40
0
 40
1
 40
1
 40
1
 40
1
 10
30.978754
 20
129.634386
 30
0.0
 10
31.443376
 20
129.634386
 30
0.0
 10
31.470173
 20
129.693359
 30
0.0
 10
31.470173
 20
130.715501
 30
0.0
  0
SPLINE
  5
127
100
AcDbEntity
  8
0
 62
5
100
AcDbSpline
 70
8
 71
3
 72
8
 73
4
 74
0
 40
0
 40
0
 40
0
 40
0
 40
1
 40
1
 40
1
 40
1
 10
26.556010
 20
130.721668
 30
0.0
 10
26.556010
 20
132.205719
 30
0.0
 10
26.494704
 20
132.618743
 30
0.0
 10
26.261156
 20
132.708365
 30
0.0
  0
SPLINE
  5
128
100
AcDbEntity
  8
0
 62
5
100
AcDbSpline
 70
8
 71
3
 72
8
 73
4
 74
0
 40
0
 40
0
 40
0
 40
0
 40
1
 40
1
 40
1
 40
1
 10
26.261156
 20
132.708365
 30
0.0
 10
25.578526
 20
132.970320
 30
0.0
 10
25.473233
 20
132.684047
 30
0.0
 10
25.537520
 20
130.741018
 30
0.0
  0
SPLINE
  5
129
100
AcDbEntity
  8
0
 62
5
100
AcDbSpline
 70
8
 71
3
 72
8
 73
4
 74
0
 40
0
 40
0
 40
0
 40
0
 40
1
 40
1
 40
1
 40
1
 10
25.537520
 20
130.741018
 30
0.0
 10
25.598948
 20
128.884384
 30
0.0
 10
25.609311
 20
128.848118
 30
0.0
 10
26.078078
 20
128.848118
 30
0.0
  0
SPLINE
  5
12a
100
AcDbEntity
  8
0
 62
5
100
AcDbSpline
 70
8
 71
3
 72
8
 73
4
 74
0
 40
0
 40
0
 40
0
 40
0
 40
1
 40
1
 40
1
 40
1
 10
26.078078
 20
128.848118
 30
0.0
 10
26.550848
 20
128.848118
 30
0.0
 10
26.556010
 20
128.868357
 30
0.0
 10
26.556010
 20
130.721668
 30
0.0
  0
SPLINE
  5
12b
100
AcDbEntity
  8
0
 62
5
100
AcDbSpline
 70
8
 71
3
 72
8
 73
4
 74
0
 40
0
 40
0
 40
0
 40
0
 40
1
 40
1
 40
1
 40
1
 10
24.786910
 20
130.813784
 30
0.0
 10
24.786910
 20
131.521423
 30
0.0
 10
24.737766
 20
131.600051
 30
0.0
 10
24.295491
 20
131.600051
 30
0.0
  0
SPLINE
  5
12c
100
AcDbEntity
  8
0
 62
5
100
AcDbSpline
 70
8
 71
3
 72
8
 73
4
 74
0
 40
0
 40
0
 40
0
 40
0
 40
1
 40
1
 40
1
 40
1
 10
24.295491
 20
131.600051
 30
0.0
 10
23.853216
 20
131.600051
 30
0.0
 10
23.804077
 20
131.521423
 30
0.0
 10
23.804077
 20
130.813784
 30
0.0
  0
SPLINE
  5
12d
100
AcDbEntity
  8
0
 62
5
100
AcDbSpline
 70
8
 71
3
 72
8
 73
4
 74
0
 40
0
 40
0
 40
0
 40
0
 40
1
 40
1
 40
1
 40
1
 10
23.804077
 20
130.813784
 30
0.0
 10
23.804077
 20
130.106145
 30
0.0
 10
23.853216
 20
130.027516
 30
0.0
 10
24.295491
 20
130.027516
 30
0.0
  0
SPLINE
  5
12e
100
AcDbEntity
  8
0
 62
5
100
AcDbSpline
 70
8
 71
3
 72
8
 73
4
 74
0
 40
0
 40
0
 40
0
 40
0
 40
1
 40
1
 40
1
 40
1
 10
24.295491
 20
130.027516
 30
0.0
 10
24.737766
 20
130.027516
 30
0.0
 10
24.786910
 20
130.106145
 30
0.0
 10
24.786910
 20
130.813784
 30
0.0
  0
SPLINE
  5
12f
100
AcDbEntity
  8
0
 62
5
100
AcDbSpline
 70
8
 71
3
 72
8
 73
4
 74
0
 40
0
 40
0
 40
0
 40
0
 40
1
 40
1
 40
1
 40
1
 10
23.017805
 20
130.813784
 30
0.0
 10
23.017805
 20
132.150438
 30
0.0
 10
23.003774
 20
132.189753
 30
0.0
 10
22.526391
 20
132.189753
 30
0.0
  0
SPLINE
  5
130
100
AcDbEntity
  8
0
 62
5
100
AcDbSpline
 70
8
 71
3
 72
8
 73
4
 74
0
 40
0
 40
0
 40
0
 40
0
 40
1
 40
1
 40
1
 40
1
 10
22.526391
 20
132.189753
 30
0.0
 10
22.049013
 20
132.189753
 30
0.0
 10
22.034972
 20
132.150428
 30
0.0
 10
22.034972
 20
130.813784
 30
0.0
  0
SPLINE
  5
131
100
AcDbEntity
  8
0
 62
5
100
AcDbSpline
 70
8
 71
3
 72
8
 73
4
 74
0
 40
0
 40
0
 40
0
 40
0
 40
1
 40
1
 40
1
 40
1
 10
22.034972
 20
130.813784
 30
0.0
 10
22.034972
 20
129.477129
 30
0.0
 10
22.049003
 20
129.437815
 30
0.0
 10
22.526391
 20
129.437815
 30
0.0
  0
SPLINE
  5
132
100
AcDbEntity
  8
0
 62
5
100
AcDbSpline
 70
8
 71
3
 72
8
 73
4
 74
0
 40
0
 40
0
 40
0
 40
0
 40
1
 40
1
 40
1
 40
1
 10
22.526391
 20
129.437815
 30
0.0
 10
23.003764
 20
129.437815
 30
0.0
 10
23.017805
 20
129.477144
 30
0.0
 10
23.017805
 20
130.813784
 30
0.0
  0
SPLINE
  5
133
100
AcDbEntity
  8
0
 62
5
100
AcDbSpline
 70
8
 71
3
 72
8
 73
4
 74
0
 40
0
 40
0
 40
0
 40
0
 40
1
 40
1
 40
1
 40
1
 10
21.445276
 20
130.813784
 30
0.0
 10
21.445276
 20
131.521423
 30
0.0
 10
21.396137
 20
131.600051
 30
0.0
 10
20.953857
 20
131.600051
 30
0.0
  0
SPLINE
  5
134
100
AcDbEntity
  8
0
 62
5
100
AcDbSpline
 70
8
 71
3
 72
8
 73
4
 74
0
 40
0
 40
0
 40
0
 40
0
 40
1
 40
1
 40
1
 40
1
 10
20.953857
 20
131.600051
 30
0.0
 10
20.511582
 20
131.600051
 30
0.0
 10
20.462438
 20
131.521423
 30
0.0
 10
20.462438
 20
130.813784
 30
0.0
  0
SPLINE
  5
135
100
AcDbEntity
  8
0
 62
5
100
AcDbSpline
 70
8
 71
3
 72
8
 73
4
 74
0
 40
0
 40
0
 40
0
 40
0
 40
1
 40
1
 40
1
 40
1
 10
20.462438
 20
130.813784
 30
0.0
 10
20.462438
 20
130.106145
 30
0.0
 10
20.511582
 20
130.027516
 30
0.0
 10
20.953857
 20
130.027516
 30
0.0
  0
SPLINE
  5
136
100
AcDbEntity
  8
0
 62
5
100
AcDbSpline
 70
8
 71
3
 72
8
 73
4
 74
0
 40
0
 40
0
 40
0
 40
0
 40
1
 40
1
 40
1
 40
1
 10
20.953857
 20
130.027516
 30
0.0
 10
21.396132
 20
130.027516
 30
0.0
 10
21.445276
 20
130.106145
 30
0.0
 10
21.445276
 20
130.813784
 30
0.0
  0
SPLINE
  5
137
100
AcDbEntity
  8
0
 62
5
100
AcDbSpline
 70
8
 71
3
 72
8
 73
4
 74
0
 40
0
 40
0
 40
0
 40
0
 40
1
 40
1
 40
1
 40
1
 10
19.676176
 20
130.715501
 30
0.0
 10
19.676176
 20
131.108632
 30
0.0
 10
19.577893
 20
131.206915
 30
0.0
 10
19.184757
 20
131.206915
 30
0.0
  0
SPLINE
  5
138
100
AcDbEntity
  8
0
 62
5
100
AcDbSpline
 70
8
 71
3
 72
8
 73
4
 74
0
 40
0
 40
0
 40
0
 40
0
 40
1
 40
1
 40
1
 40
1
 10
19.184757
 20
131.206915
 30
0.0
 10
18.791626
 20
131.206915
 30
0.0
 10
18.693343
 20
131.108632
 30
0.0
 10
18.693343
 20
130.715501
 30
0.0
  0
SPLINE
  5
139
100
AcDbEntity
  8
0
 62
5
100
AcDbSpline
 70
8
 71
3
 72
8
 73
4
 74
0
 40
0
 40
0
 40
0
 40
0
 40
1
 40
1
 40
1
 40
1
 10
18.693343
 20
130.715501
 30
0.0
 10
18.693343
 20
130.322365
 30
0.0
 10
18.791621
 20
130.224082
 30
0.0
 10
19.184757
 20
130.224082
 30
0.0
  0
SPLINE
  5
13a
100
AcDbEntity
  8
0
 62
5
100
AcDbSpline
 70
8
 71
3
 72
8
 73
4
 74
0
 40
0
 40
0
 40
0
 40
0
 40
1
 40
1
 40
1
 40
1
 10
19.184757
 20
130.224082
 30
0.0
 10
19.577888
 20
130.224082
 30
0.0
 10
19.676176
 20
130.322365
 30
0.0
 10
19.676176
 20
130.715501
 30
0.0
  0
SPLINE
  5
13b
100
AcDbEntity
  8
0
 62
5
100
AcDbSpline
 70
8
 71
3
 72
8
 73
4
 74
0
 40
0
 40
0
 40
0
 40
0
 40
1
 40
1
 40
1
 40
1
 10
41.579317
 20
130.139841
 30
0.0
 10
41.223956
 20
129.784474
 30
0.0
 10
40.948351
 20
129.760629
 30
0.0
 10
40.463099
 20
130.043254
 30
0.0
  0
SPLINE
  5
13c
100
AcDbEntity
  8
0
 62
5
100
AcDbSpline
 70
8
 71
3
 72
8
 73
4
 74
0
 40
0
 40
0
 40
0
 40
0
 40
1
 40
1
 40
1
 40
1
 10
40.463099
 20
130.043254
 30
0.0
 10
39.763390
 20
130.450802
 30
0.0
 10
40.162439
 20
131.600051
 30
0.0
 10
41.003662
 20
131.600051
 30
0.0
  0
SPLINE
  5
13d
100
AcDbEntity
  8
0
 62
5
100
AcDbSpline
 70
8
 71
3
 72
8
 73
4
 74
0
 40
0
 40
0
 40
0
 40
0
 40
1
 40
1
 40
1
 40
1
 10
41.003662
 20
131.600051
 30
0.0
 10
41.831433
 20
131.600051
 30
0.0
 10
42.173032
 20
130.733555
 30
0.0
 10
41.579317
 20
130.139841
 30
0.0
  0
SPLINE
  5
13e
100
AcDbEntity
  8
0
 62
5
100
AcDbSpline
 70
8
 71
3
 72
8
 73
4
 74
0
 40
0
 40
0
 40
0
 40
0
 40
1
 40
1
 40
1
 40
1
 10
43.802371
 20
118.626650
 30
0.0
 10
43.904789
 20
118.244645
 30
0.0
 10
43.950483
 20
118.212849
 30
0.0
 10
44.007588
 20
118.483836
 30
0.0
  0
SPLINE
  5
13f
100
AcDbEntity
  8
0
 62
5
100
AcDbSpline
 70
8
 71
3
 72
8
 73
4
 74
0
 40
0
 40
0
 40
0
 40
0
 40
1
 40
1
 40
1
 40
1
 10
41.746988
 20
120.917776
 30
0.0
 10
42.493260
 20
120.605966
 30
0.0
 10
43.603499
 20
119.368386
 30
0.0
 10
43.802371
 20
118.626650
 30
0.0
  0
SPLINE
  5
140
100
AcDbEntity
  8
0
 62
5
100
AcDbSpline
 70
8
 71
3
 72
8
 73
4
 74
0
 40
0
 40
0
 40
0
 40
0
 40
1
 40
1
 40
1
 40
1
 10
39.435044
 20
120.974835
 30
0.0
 10
40.783728
 20
121.154311
 30
0.0
 10
41.205810
 20
121.143892
 30
0.0
 10
41.746988
 20
120.917776
 30
0.0
  0
SPLINE
  5
141
100
AcDbEntity
  8
0
 62
5
100
AcDbSpline
 70
8
 71
3
 72
8
 73
4
 74
0
 40
0
 40
0
 40
0
 40
0
 40
1
 40
1
 40
1
 40
1
 10
37.428739
 20
120.828952
 30
0.0
 10
37.624766
 20
120.788424
 30
0.0
 10
38.527604
 20
120.854073
 30
0.0
 10
39.435044
 20
120.974835
 30
0.0
  0
SPLINE
  5
142
100
AcDbEntity
  8
0
 62
5
100
AcDbSpline
 70
8
 71
3
 72
8
 73
4
 74
0
 40
0
 40
0
 40
0
 40
0
 40
1
 40
1
 40
1
 40
1
 10
40.881549
 20
121.575148
 30
0.0
 10
39.660774
 20
121.575148
 30
0.0
 10
36.804798
 20
120.957938
 30
0.0
 10
37.428739
 20
120.828952
 30
0.0
  0
SPLINE
  5
143
100
AcDbEntity
  8
0
 62
5
100
AcDbSpline
 70
8
 71
3
 72
8
 73
4
 74
0
 40
0
 40
0
 40
0
 40
0
 40
1
 40
1
 40
1
 40
1
 10
43.657296
 20
119.707791
 30
0.0
 10
42.982850
 20
121.101007
 30
0.0
 10
42.278061
 20
121.575148
 30
0.0
 10
40.881549
 20
121.575148
 30
0.0
  0
SPLINE
  5
144
100
AcDbEntity
  8
0
 62
5
100
AcDbSpline
 70
8
 71
3
 72
8
 73
4
 74
0
 40
0
 40
0
 40
0
 40
0
 40
1
 40
1
 40
1
 40
1
 10
44.007588
 20
118.483836
 30
0.0
 10
44.048004
 20
118.675571
 30
0.0
 10
43.890357
 20
119.226350
 30
0.0
 10
43.657296
 20
119.707791
 30
0.0
  0
SPLINE
  5
145
100
AcDbEntity
  8
0
 62
5
100
AcDbSpline
 70
8
 71
3
 72
8
 73
4
 74
0
 40
0
 40
0
 40
0
 40
0
 40
1
 40
1
 40
1
 40
1
 10
29.406225
 20
100.898085
 30
0.0
 10
27.887869
 20
100.889617
 30
0.0
 10
27.857394
 20
100.880534
 30
0.0
 10
28.521675
 20
100.632620
 30
0.0
  0
SPLINE
  5
146
100
AcDbEntity
  8
0
 62
5
100
AcDbSpline
 70
8
 71
3
 72
8
 73
4
 74
0
 40
0
 40
0
 40
0
 40
0
 40
1
 40
1
 40
1
 40
1
 10
34.320393
 20
102.013211
 30
0.0
 10
32.047998
 20
101.178583
 30
0.0
 10
30.847009
 20
100.906061
 30
0.0
 10
29.406225
 20
100.898085
 30
0.0
  0
SPLINE
  5
147
100
AcDbEntity
  8
0
 62
5
100
AcDbSpline
 70
8
 71
3
 72
8
 73
4
 74
0
 40
0
 40
0
 40
0
 40
0
 40
1
 40
1
 40
1
 40
1
 10
33.828974
 20
101.543535
 30
0.0
 10
34.315476
 20
101.881274
 30
0.0
 10
34.536613
 20
102.092627
 30
0.0
 10
34.320393
 20
102.013211
 30
0.0
  0
SPLINE
  5
148
100
AcDbEntity
  8
0
 62
5
100
AcDbSpline
 70
8
 71
3
 72
8
 73
4
 74
0
 40
0
 40
0
 40
0
 40
0
 40
1
 40
1
 40
1
 40
1
 10
31.975054
 20
100.637725
 30
0.0
 10
32.508210
 20
100.798172
 30
0.0
 10
33.342473
 20
101.205796
 30
0.0
 10
33.828974
 20
101.543535
 30
0.0
  0
SPLINE
  5
149
100
AcDbEntity
  8
0
 62
5
100
AcDbSpline
 70
8
 71
3
 72
8
 73
4
 74
0
 40
0
 40
0
 40
0
 40
0
 40
1
 40
1
 40
1
 40
1
 10
28.521675
 20
100.632620
 30
0.0
 10
29.455404
 20
100.284142
 30
0.0
 10
30.806959
 20
100.286128
 30
0.0
 10
31.975054
 20
100.637725
 30
0.0
  0
SPLINE
  5
14a
100
AcDbEntity
  8
0
 62
5
100
AcDbSpline
 70
8
 71
3
 72
8
 73
4
 74
0
 40
0
 40
0
 40
0
 40
0
 40
1
 40
1
 40
1
 40
1
 10
16.615349
 20
130.139841
 30
0.0
 10
16.259988
 20
129.784474
 30
0.0
 10
15.984382
 20
129.760629
 30
0.0
 10
15.499131
 20
130.043254
 30
0.0
  0
SPLINE
  5
14b
100
AcDbEntity
  8
0
 62
5
100
AcDbSpline
 70
8
 71
3
 72
8
 73
4
 74
0
 40
0
 40
0
 40
0
 40
0
 40
1
 40
1
 40
1
 40
1
 10
15.499131
 20
130.043254
 30
0.0
 10
14.799421
 20
130.450802
 30
0.0
 10
15.198471
 20
131.600051
 30
0.0
 10
16.039688
 20
131.600051
 30
0.0
  0
SPLINE
  5
14c
100
AcDbEntity
  8
0
 62
5
100
AcDbSpline
 70
8
 71
3
 72
8
 73
4
 74
0
 40
0
 40
0
 40
0
 40
0
 40
1
 40
1
 40
1
 40
1
 10
16.039688
 20
131.600051
 30
0.0
 10
16.867464
 20
131.600051
 30
0.0
 10
17.209064
 20
130.733555
 30
0.0
 10
16.615349
 20
130.139841
 30
0.0
  0
SPLINE
  5
14d
100
AcDbEntity
  8
0
 62
5
100
AcDbSpline
 70
8
 71
3
 72
8
 73
4
 74
0
 40
0
 40
0
 40
0
 40
0
 40
1
 40
1
 40
1
 40
1
 10
13.777148
 20
113.818364
 30
0.0
 10
13.857188
 20
114.363103
 30
0.0
 10
14.065514
 20
115.085047
 30
0.0
 10
14.240118
 20
115.422684
 30
0.0
  0
SPLINE
  5
14e
100
AcDbEntity
  8
0
 62
5
100
AcDbSpline
 70
8
 71
3
 72
8
 73
4
 74
0
 40
0
 40
0
 40
0
 40
0
 40
1
 40
1
 40
1
 40
1
 10
14.240118
 20
115.422684
 30
0.0
 10
14.739381
 20
116.388123
 30
0.0
 10
15.403921
 20
116.776662
 30
0.0
 10
17.362459
 20
117.248228
 30
0.0
  0
SPLINE
  5
14f
100
AcDbEntity
  8
0
 62
5
100
AcDbSpline
 70
8
 71
3
 72
8
 73
4
 74
0
 40
0
 40
0
 40
0
 40
0
 40
1
 40
1
 40
1
 40
1
 10
17.362459
 20
117.248228
 30
0.0
 10
18.364723
 20
117.489548
 30
0.0
 10
19.228983
 20
117.732855
 30
0.0
 10
19.283040
 20
117.788902
 30
0.0
  0
SPLINE
  5
150
100
AcDbEntity
  8
0
 62
5
100
AcDbSpline
 70
8
 71
3
 72
8
 73
4
 74
0
 40
0
 40
0
 40
0
 40
0
 40
1
 40
1
 40
1
 40
1
 10
19.283040
 20
117.788902
 30
0.0
 10
19.530888
 20
118.045895
 30
0.0
 10
15.947664
 20
117.572642
 30
0.0
 10
15.216723
 20
117.251845
 30
0.0
  0
SPLINE
  5
151
100
AcDbEntity
  8
0
 62
5
100
AcDbSpline
 70
8
 71
3
 72
8
 73
4
 74
0
 40
0
 40
0
 40
0
 40
0
 40
1
 40
1
 40
1
 40
1
 10
15.216723
 20
117.251845
 30
0.0
 10
14.089608
 20
116.757175
 30
0.0
 10
13.573968
 20
115.736044
 30
0.0
 10
13.607135
 20
114.064302
 30
0.0
  0
SPLINE
  5
152
100
AcDbEntity
  8
0
 62
5
100
AcDbSpline
 70
8
 71
3
 72
8
 73
4
 74
0
 40
0
 40
0
 40
0
 40
0
 40
1
 40
1
 40
1
 40
1
 10
18.889909
 20
108.016552
 30
0.0
 10
19.629871
 20
108.585233
 30
0.0
 10
21.643939
 20
109.344418
 30
0.0
 10
23.344515
 20
109.695685
 30
0.0
  0
SPLINE
  5
153
100
AcDbEntity
  8
0
 62
5
100
AcDbSpline
 70
8
 71
3
 72
8
 73
4
 74
0
 40
0
 40
0
 40
0
 40
0
 40
1
 40
1
 40
1
 40
1
 10
25.278323
 20
103.374392
 30
0.0
 10
22.854727
 20
103.934412
 30
0.0
 10
20.961822
 20
104.992530
 30
0.0
 10
19.283045
 20
106.725683
 30
0.0
  0
SPLINE
  5
154
100
AcDbEntity
  8
0
 62
5
100
AcDbSpline
 70
8
 71
3
 72
8
 73
4
 74
0
 40
0
 40
0
 40
0
 40
0
 40
1
 40
1
 40
1
 40
1
 10
38.626166
 20
107.985077
 30
0.0
 10
37.297294
 20
106.067514
 30
0.0
 10
34.687149
 20
104.388508
 30
0.0
 10
31.922379
 20
103.672787
 30
0.0
  0
SPLINE
  5
155
100
AcDbEntity
  8
0
 62
5
100
AcDbSpline
 70
8
 71
3
 72
8
 73
4
 74
0
 40
0
 40
0
 40
0
 40
0
 40
1
 40
1
 40
1
 40
1
 10
39.062487
 20
108.955270
 30
0.0
 10
39.123671
 20
108.856261
 30
0.0
 10
38.927329
 20
108.419666
 30
0.0
 10
38.626166
 20
107.985077
 30
0.0
  0
SPLINE
  5
156
100
AcDbEntity
  8
0
 62
5
100
AcDbSpline
 70
8
 71
3
 72
8
 73
4
 74
0
 40
0
 40
0
 40
0
 40
0
 40
1
 40
1
 40
1
 40
1
 10
35.752191
 20
109.669371
 30
0.0
 10
37.314215
 20
109.496763
 30
0.0
 10
38.945276
 20
109.144912
 30
0.0
 10
39.062487
 20
108.955270
 30
0.0
  0
SPLINE
  5
157
100
AcDbEntity
  8
0
 62
5
100
AcDbSpline
 70
8
 71
3
 72
8
 73
4
 74
0
 40
0
 40
0
 40
0
 40
0
 40
1
 40
1
 40
1
 40
1
 10
31.175330
 20
109.313903
 30
0.0
 10
34.124971
 20
109.694268
 30
0.0
 10
34.948241
 20
109.758210
 30
0.0
 10
35.752191
 20
109.669371
 30
0.0
  0
SPLINE
  5
158
100
AcDbEntity
  8
0
 62
5
100
AcDbSpline
 70
8
 71
3
 72
8
 73
4
 74
0
 40
0
 40
0
 40
0
 40
0
 40
1
 40
1
 40
1
 40
1
 10
30.050328
 20
109.024953
 30
0.0
 10
30.344750
 20
109.142036
 30
0.0
 10
30.850992
 20
109.272079
 30
0.0
 10
31.175330
 20
109.313903
 30
0.0
  0
SPLINE
  5
159
100
AcDbEntity
  8
0
 62
5
100
AcDbSpline
 70
8
 71
3
 72
8
 73
4
 74
0
 40
0
 40
0
 40
0
 40
0
 40
1
 40
1
 40
1
 40
1
 10
26.346724
 20
109.708050
 30
0.0
 10
27.164558
 20
109.542711
 30
0.0
 10
28.211998
 20
109.273471
 30
0.0
 10
28.674360
 20
109.109738
 30
0.0
  0
SPLINE
  5
15a
100
AcDbEntity
  8
0
 62
5
100
AcDbSpline
 70
8
 71
3
 72
8
 73
4
 74
0
 40
0
 40
0
 40
0
 40
0
 40
1
 40
1
 40
1
 40
1
 10
23.344515
 20
109.695685
 30
0.0
 10
24.714830
 20
109.978733
 30
0.0
 10
25.001956
 20
109.979911
 30
0.0
 10
26.346724
 20
109.708050
 30
0.0
  0
SPLINE
  5
15b
100
AcDbEntity
  8
0
 62
5
100
AcDbSpline
 70
8
 71
3
 72
8
 73
4
 74
0
 40
0
 40
0
 40
0
 40
0
 40
1
 40
1
 40
1
 40
1
 10
19.503827
 20
111.257054
 30
0.0
 10
19.407403
 20
110.806402
 30
0.0
 10
19.240611
 20
110.639600
 30
0.0
 10
18.789960
 20
110.543187
 30
0.0
  0
SPLINE
  5
15c
100
AcDbEntity
  8
0
 62
5
100
AcDbSpline
 70
8
 71
3
 72
8
 73
4
 74
0
 40
0
 40
0
 40
0
 40
0
 40
1
 40
1
 40
1
 40
1
 10
19.652899
 20
111.414432
 30
0.0
 10
19.635643
 20
111.733801
 30
0.0
 10
19.597121
 20
111.693126
 30
0.0
 10
19.503827
 20
111.257054
 30
0.0
  0
SPLINE
  5
15d
100
AcDbEntity
  8
0
 62
5
100
AcDbSpline
 70
8
 71
3
 72
8
 73
4
 74
0
 40
0
 40
0
 40
0
 40
0
 40
1
 40
1
 40
1
 40
1
 10
21.202380
 20
110.954946
 30
0.0
 10
19.943455
 20
110.711909
 30
0.0
 10
19.686727
 20
110.788038
 30
0.0
 10
19.652899
 20
111.414432
 30
0.0
  0
SPLINE
  5
15e
100
AcDbEntity
  8
0
 62
5
100
AcDbSpline
 70
8
 71
3
 72
8
 73
4
 74
0
 40
0
 40
0
 40
0
 40
0
 40
1
 40
1
 40
1
 40
1
 10
25.119238
 20
111.634503
 30
0.0
 10
23.860998
 20
111.428118
 30
0.0
 10
23.766592
 20
111.439004
 30
0.0
 10
23.498759
 20
111.821391
 30
0.0
  0
SPLINE
  5
15f
100
AcDbEntity
  8
0
 62
5
100
AcDbSpline
 70
8
 71
3
 72
8
 73
4
 74
0
 40
0
 40
0
 40
0
 40
0
 40
1
 40
1
 40
1
 40
1
 10
26.580683
 20
112.439083
 30
0.0
 10
26.462863
 20
111.888853
 30
0.0
 10
26.374989
 20
111.840476
 30
0.0
 10
25.119238
 20
111.634503
 30
0.0
  0
SPLINE
  5
160
100
AcDbEntity
  8
0
 62
5
100
AcDbSpline
 70
8
 71
3
 72
8
 73
4
 74
0
 40
0
 40
0
 40
0
 40
0
 40
1
 40
1
 40
1
 40
1
 10
26.729298
 20
112.704584
 30
0.0
 10
26.716533
 20
112.880541
 30
0.0
 10
26.649634
 20
112.761074
 30
0.0
 10
26.580683
 20
112.439083
 30
0.0
  0
SPLINE
  5
161
100
AcDbEntity
  8
0
 62
5
100
AcDbSpline
 70
8
 71
3
 72
8
 73
4
 74
0
 40
0
 40
0
 40
0
 40
0
 40
1
 40
1
 40
1
 40
1
 10
28.616046
 20
112.214476
 30
0.0
 10
27.181896
 20
111.976168
 30
0.0
 10
26.774561
 20
112.081975
 30
0.0
 10
26.729298
 20
112.704584
 30
0.0
  0
SPLINE
  5
162
100
AcDbEntity
  8
0
 62
5
100
AcDbSpline
 70
8
 71
3
 72
8
 73
4
 74
0
 40
0
 40
0
 40
0
 40
0
 40
1
 40
1
 40
1
 40
1
 10
30.234824
 20
112.930055
 30
0.0
 10
30.029048
 20
112.523350
 30
0.0
 10
29.760499
 20
112.404646
 30
0.0
 10
28.616046
 20
112.214476
 30
0.0
  0
SPLINE
  5
163
100
AcDbEntity
  8
0
 62
5
100
AcDbSpline
 70
8
 71
3
 72
8
 73
4
 74
0
 40
0
 40
0
 40
0
 40
0
 40
1
 40
1
 40
1
 40
1
 10
30.484429
 20
113.073651
 30
0.0
 10
30.482682
 20
113.326869
 30
0.0
 10
30.416434
 20
113.288973
 30
0.0
 10
30.234824
 20
112.930055
 30
0.0
  0
SPLINE
  5
164
100
AcDbEntity
  8
0
 62
5
100
AcDbSpline
 70
8
 71
3
 72
8
 73
4
 74
0
 40
0
 40
0
 40
0
 40
0
 40
1
 40
1
 40
1
 40
1
 10
32.830023
 20
112.946408
 30
0.0
 10
30.972511
 20
112.635197
 30
0.0
 10
30.487899
 20
112.661486
 30
0.0
 10
30.484429
 20
113.073651
 30
0.0
  0
SPLINE
  5
165
100
AcDbEntity
  8
0
 62
5
100
AcDbSpline
 70
8
 71
3
 72
8
 73
4
 74
0
 40
0
 40
0
 40
0
 40
0
 40
1
 40
1
 40
1
 40
1
 10
34.363370
 20
113.466986
 30
0.0
 10
34.231610
 20
113.299884
 30
0.0
 10
33.541609
 20
113.065620
 30
0.0
 10
32.830023
 20
112.946408
 30
0.0
  0
SPLINE
  5
166
100
AcDbEntity
  8
0
 62
5
100
AcDbSpline
 70
8
 71
3
 72
8
 73
4
 74
0
 40
0
 40
0
 40
0
 40
0
 40
1
 40
1
 40
1
 40
1
 10
34.866651
 20
113.551949
 30
0.0
 10
34.668394
 20
113.716490
 30
0.0
 10
34.543476
 20
113.695403
 30
0.0
 10
34.363370
 20
113.466986
 30
0.0
  0
SPLINE
  5
167
100
AcDbEntity
  8
0
 62
5
100
AcDbSpline
 70
8
 71
3
 72
8
 73
4
 74
0
 40
0
 40
0
 40
0
 40
0
 40
1
 40
1
 40
1
 40
1
 10
36.592759
 20
113.577110
 30
0.0
 10
35.515936
 20
113.397415
 30
0.0
 10
35.060839
 20
113.390781
 30
0.0
 10
34.866651
 20
113.551949
 30
0.0
  0
SPLINE
  5
168
100
AcDbEntity
  8
0
 62
5
100
AcDbSpline
 70
8
 71
3
 72
8
 73
4
 74
0
 40
0
 40
0
 40
0
 40
0
 40
1
 40
1
 40
1
 40
1
 10
38.322112
 20
114.866795
 30
0.0
 10
38.302946
 20
115.221582
 30
0.0
 10
38.256799
 20
115.138743
 30
0.0
 10
38.174686
 20
114.602213
 30
0.0
  0
SPLINE
  5
169
100
AcDbEntity
  8
0
 62
5
100
AcDbSpline
 70
8
 71
3
 72
8
 73
4
 74
0
 40
0
 40
0
 40
0
 40
0
 40
1
 40
1
 40
1
 40
1
 10
39.816669
 20
114.123627
 30
0.0
 10
38.698988
 20
113.914823
 30
0.0
 10
38.364546
 20
114.081127
 30
0.0
 10
38.322112
 20
114.866795
 30
0.0
  0
SPLINE
  5
16a
100
AcDbEntity
  8
0
 62
5
100
AcDbSpline
 70
8
 71
3
 72
8
 73
4
 74
0
 40
0
 40
0
 40
0
 40
0
 40
1
 40
1
 40
1
 40
1
 10
40.959242
 20
114.473984
 30
0.0
 10
40.866664
 20
114.381391
 30
0.0
 10
40.352492
 20
114.223733
 30
0.0
 10
39.816669
 20
114.123627
 30
0.0
  0
SPLINE
  5
16b
100
AcDbEntity
  8
0
 62
5
100
AcDbSpline
 70
8
 71
3
 72
8
 73
4
 74
0
 40
0
 40
0
 40
0
 40
0
 40
1
 40
1
 40
1
 40
1
 10
40.996301
 20
118.417695
 30
0.0
 10
41.238505
 20
118.175389
 30
0.0
 10
41.206054
 20
114.720781
 30
0.0
 10
40.959242
 20
114.473984
 30
0.0
  0
SPLINE
  5
16c
100
AcDbEntity
  8
0
 62
5
100
AcDbSpline
 70
8
 71
3
 72
8
 73
4
 74
0
 40
0
 40
0
 40
0
 40
0
 40
1
 40
1
 40
1
 40
1
 10
37.944364
 20
117.917340
 30
0.0
 10
38.377027
 20
118.294835
 30
0.0
 10
40.733015
 20
118.681093
 30
0.0
 10
40.996301
 20
118.417695
 30
0.0
  0
SPLINE
  5
16d
100
AcDbEntity
  8
0
 62
5
100
AcDbSpline
 70
8
 71
3
 72
8
 73
4
 74
0
 40
0
 40
0
 40
0
 40
0
 40
1
 40
1
 40
1
 40
1
 10
37.448713
 20
117.837478
 30
0.0
 10
37.568723
 20
117.717463
 30
0.0
 10
37.748469
 20
117.746439
 30
0.0
 10
37.944364
 20
117.917340
 30
0.0
  0
SPLINE
  5
16e
100
AcDbEntity
  8
0
 62
5
100
AcDbSpline
 70
8
 71
3
 72
8
 73
4
 74
0
 40
0
 40
0
 40
0
 40
0
 40
1
 40
1
 40
1
 40
1
 10
35.791323
 20
117.779789
 30
0.0
 10
36.727678
 20
117.936563
 30
0.0
 10
37.328708
 20
117.957482
 30
0.0
 10
37.448713
 20
117.837478
 30
0.0
  0
SPLINE
  5
16f
100
AcDbEntity
  8
0
 62
5
100
AcDbSpline
 70
8
 71
3
 72
8
 73
4
 74
0
 40
0
 40
0
 40
0
 40
0
 40
1
 40
1
 40
1
 40
1
 10
34.197142
 20
116.949971
 30
0.0
 10
34.315877
 20
117.504158
 30
0.0
 10
34.396842
 20
117.546307
 30
0.0
 10
35.791323
 20
117.779789
 30
0.0
  0
SPLINE
  5
170
100
AcDbEntity
  8
0
 62
5
100
AcDbSpline
 70
8
 71
3
 72
8
 73
4
 74
0
 40
0
 40
0
 40
0
 40
0
 40
1
 40
1
 40
1
 40
1
 10
34.048801
 20
116.686055
 30
0.0
 10
34.061567
 20
116.510094
 30
0.0
 10
34.128344
 20
116.628849
 30
0.0
 10
34.197142
 20
116.949971
 30
0.0
  0
SPLINE
  5
171
100
AcDbEntity
  8
0
 62
5
100
AcDbSpline
 70
8
 71
3
 72
8
 73
4
 74
0
 40
0
 40
0
 40
0
 40
0
 40
1
 40
1
 40
1
 40
1
 10
31.767007
 20
117.078353
 30
0.0
 10
33.591683
 20
117.415517
 30
0.0
 10
34.000887
 20
117.345164
 30
0.0
 10
34.048801
 20
116.686055
 30
0.0
  0
SPLINE
  5
172
100
AcDbEntity
  8
0
 62
5
100
AcDbSpline
 70
8
 71
3
 72
8
 73
4
 74
0
 40
0
 40
0
 40
0
 40
0
 40
1
 40
1
 40
1
 40
1
 10
29.931624
 20
116.397414
 30
0.0
 10
29.985375
 20
116.676469
 30
0.0
 10
30.375595
 20
116.821249
 30
0.0
 10
31.767007
 20
117.078353
 30
0.0
  0
SPLINE
  5
173
100
AcDbEntity
  8
0
 62
5
100
AcDbSpline
 70
8
 71
3
 72
8
 73
4
 74
0
 40
0
 40
0
 40
0
 40
0
 40
1
 40
1
 40
1
 40
1
 10
29.629552
 20
116.362779
 30
0.0
 10
29.842770
 20
116.071192
 30
0.0
 10
29.869389
 20
116.074245
 30
0.0
 10
29.931624
 20
116.397414
 30
0.0
  0
SPLINE
  5
174
100
AcDbEntity
  8
0
 62
5
100
AcDbSpline
 70
8
 71
3
 72
8
 73
4
 74
0
 40
0
 40
0
 40
0
 40
0
 40
1
 40
1
 40
1
 40
1
 10
28.028214
 20
116.464084
 30
0.0
 10
29.226789
 20
116.655554
 30
0.0
 10
29.424619
 20
116.643043
 30
0.0
 10
29.629552
 20
116.362779
 30
0.0
  0
SPLINE
  5
175
100
AcDbEntity
  8
0
 62
5
100
AcDbSpline
 70
8
 71
3
 72
8
 73
4
 74
0
 40
0
 40
0
 40
0
 40
0
 40
1
 40
1
 40
1
 40
1
 10
26.350133
 20
115.964563
 30
0.0
 10
26.520942
 20
116.119147
 30
0.0
 10
27.276079
 20
116.343927
 30
0.0
 10
28.028214
 20
116.464084
 30
0.0
  0
SPLINE
  5
176
100
AcDbEntity
  8
0
 62
5
100
AcDbSpline
 70
8
 71
3
 72
8
 73
4
 74
0
 40
0
 40
0
 40
0
 40
0
 40
1
 40
1
 40
1
 40
1
 10
25.848152
 20
115.874926
 30
0.0
 10
25.972328
 20
115.750746
 30
0.0
 10
26.148654
 20
115.782226
 30
0.0
 10
26.350133
 20
115.964563
 30
0.0
  0
SPLINE
  5
177
100
AcDbEntity
  8
0
 62
5
100
AcDbSpline
 70
8
 71
3
 72
8
 73
4
 74
0
 40
0
 40
0
 40
0
 40
0
 40
1
 40
1
 40
1
 40
1
 10
22.966786
 20
115.276350
 30
0.0
 10
23.232156
 20
115.701266
 30
0.0
 10
25.541970
 20
116.181108
 30
0.0
 10
25.848152
 20
115.874926
 30
0.0
  0
SPLINE
  5
178
100
AcDbEntity
  8
0
 62
5
100
AcDbSpline
 70
8
 71
3
 72
8
 73
4
 74
0
 40
0
 40
0
 40
0
 40
0
 40
1
 40
1
 40
1
 40
1
 10
20.946918
 20
115.274709
 30
0.0
 10
22.119249
 20
115.474302
 30
0.0
 10
22.346757
 20
115.465646
 30
0.0
 10
22.530435
 20
115.214440
 30
0.0
  0
SPLINE
  5
179
100
AcDbEntity
  8
0
 62
5
100
AcDbSpline
 70
8
 71
3
 72
8
 73
4
 74
0
 40
0
 40
0
 40
0
 40
0
 40
1
 40
1
 40
1
 40
1
 10
19.270533
 20
114.772876
 30
0.0
 10
19.439585
 20
114.920694
 30
0.0
 10
20.193950
 20
115.146515
 30
0.0
 10
20.946918
 20
115.274709
 30
0.0
  0
SPLINE
  5
17a
100
AcDbEntity
  8
0
 62
5
100
AcDbSpline
 70
8
 71
3
 72
8
 73
4
 74
0
 40
0
 40
0
 40
0
 40
0
 40
1
 40
1
 40
1
 40
1
 10
18.773627
 20
114.693658
 30
0.0
 10
18.895319
 20
114.571977
 30
0.0
 10
19.073220
 20
114.600349
 30
0.0
 10
19.270533
 20
114.772876
 30
0.0
  0
SPLINE
  5
17b
100
AcDbEntity
  8
0
 62
5
100
AcDbSpline
 70
8
 71
3
 72
8
 73
4
 74
0
 40
0
 40
0
 40
0
 40
0
 40
1
 40
1
 40
1
 40
1
 10
15.677362
 20
114.069748
 30
0.0
 10
15.921212
 20
114.456331
 30
0.0
 10
18.492780
 20
114.974511
 30
0.0
 10
18.773627
 20
114.693658
 30
0.0
  0
SPLINE
  5
17c
100
AcDbEntity
  8
0
 62
5
100
AcDbSpline
 70
8
 71
3
 72
8
 73
4
 74
0
 40
0
 40
0
 40
0
 40
0
 40
1
 40
1
 40
1
 40
1
 10
18.789960
 20
110.543187
 30
0.0
 10
17.545583
 20
110.276949
 30
0.0
 10
16.944624
 20
110.352900
 30
0.0
 10
16.654028
 20
110.813133
 30
0.0
  0
SPLINE
  5
17d
100
AcDbEntity
  8
0
 62
5
100
AcDbSpline
 70
8
 71
3
 72
8
 73
4
 74
0
 40
0
 40
0
 40
0
 40
0
 40
1
 40
1
 40
1
 40
1
 10
23.214355
 20
111.794310
 30
0.0
 10
23.214355
 20
111.337282
 30
0.0
 10
23.241508
 20
111.348605
 30
0.0
 10
21.202380
 20
110.954946
 30
0.0
  0
SPLINE
  5
17e
100
AcDbEntity
  8
0
 62
5
100
AcDbSpline
 70
8
 71
3
 72
8
 73
4
 74
0
 40
0
 40
0
 40
0
 40
0
 40
1
 40
1
 40
1
 40
1
 10
28.674360
 20
109.109738
 30
0.0
 10
29.319606
 20
108.881249
 30
0.0
 10
29.639458
 20
108.861539
 30
0.0
 10
30.050328
 20
109.024953
 30
0.0
  0
SPLINE
  5
17f
100
AcDbEntity
  8
0
 62
5
100
AcDbSpline
 70
8
 71
3
 72
8
 73
4
 74
0
 40
0
 40
0
 40
0
 40
0
 40
1
 40
1
 40
1
 40
1
 10
31.922379
 20
103.672787
 30
0.0
 10
29.922231
 20
103.155002
 30
0.0
 10
26.828958
 20
103.016080
 30
0.0
 10
25.278323
 20
103.374392
 30
0.0
  0
SPLINE
  5
180
100
AcDbEntity
  8
0
 62
5
100
AcDbSpline
 70
8
 71
3
 72
8
 73
4
 74
0
 40
0
 40
0
 40
0
 40
0
 40
1
 40
1
 40
1
 40
1
 10
15.011821
 20
112.434796
 30
0.0
 10
16.803776
 20
107.084758
 30
0.0
 10
20.557297
 20
103.356887
 30
0.0
 10
25.109271
 20
102.406353
 30
0.0
  0
SPLINE
  5
181
100
AcDbEntity
  8
0
 62
5
100
AcDbSpline
 70
8
 71
3
 72
8
 73
4
 74
0
 40
0
 40
0
 40
0
 40
0
 40
1
 40
1
 40
1
 40
1
 10
14.636729
 20
114.986485
 30
0.0
 10
14.353164
 20
114.598688
 30
0.0
 10
14.404883
 20
114.246867
 30
0.0
 10
15.011821
 20
112.434796
 30
0.0
  0
SPLINE
  5
182
100
AcDbEntity
  8
0
 62
5
100
AcDbSpline
 70
8
 71
3
 72
8
 73
4
 74
0
 40
0
 40
0
 40
0
 40
0
 40
1
 40
1
 40
1
 40
1
 10
29.602795
 20
117.826434
 30
0.0
 10
14.301135
 20
115.273271
 30
0.0
 10
14.934285
 20
115.393418
 30
0.0
 10
14.636729
 20
114.986485
 30
0.0
  0
SPLINE
  5
183
100
AcDbEntity
  8
0
 62
5
100
AcDbSpline
 70
8
 71
3
 72
8
 73
4
 74
0
 40
0
 40
0
 40
0
 40
0
 40
1
 40
1
 40
1
 40
1
 10
40.783820
 20
119.834293
 30
0.0
 10
40.580401
 20
119.722117
 30
0.0
 10
35.548935
 20
118.818583
 30
0.0
 10
29.602795
 20
117.826434
 30
0.0
  0
SPLINE
  5
184
100
AcDbEntity
  8
0
 62
5
100
AcDbSpline
 70
8
 71
3
 72
8
 73
4
 74
0
 40
0
 40
0
 40
0
 40
0
 40
1
 40
1
 40
1
 40
1
 10
42.089532
 20
118.125955
 30
0.0
 10
41.863284
 20
119.492796
 30
0.0
 10
41.359597
 20
120.151804
 30
0.0
 10
40.783820
 20
119.834293
 30
0.0
  0
SPLINE
  5
185
100
AcDbEntity
  8
0
 62
5
100
AcDbSpline
 70
8
 71
3
 72
8
 73
4
 74
0
 40
0
 40
0
 40
0
 40
0
 40
1
 40
1
 40
1
 40
1
 10
41.268518
 20
111.259741
 30
0.0
 10
41.891168
 20
113.115719
 30
0.0
 10
42.322191
 20
116.720396
 30
0.0
 10
42.089532
 20
118.125955
 30
0.0
  0
SPLINE
  5
186
100
AcDbEntity
  8
0
 62
5
100
AcDbSpline
 70
8
 71
3
 72
8
 73
4
 74
0
 40
0
 40
0
 40
0
 40
0
 40
1
 40
1
 40
1
 40
1
 10
32.116237
 20
102.687978
 30
0.0
 10
36.613658
 20
103.855981
 30
0.0
 10
39.779356
 20
106.820883
 30
0.0
 10
41.268518
 20
111.259741
 30
0.0
  0
SPLINE
  5
187
100
AcDbEntity
  8
0
 62
5
100
AcDbSpline
 70
8
 71
3
 72
8
 73
4
 74
0
 40
0
 40
0
 40
0
 40
0
 40
1
 40
1
 40
1
 40
1
 10
25.109271
 20
102.406353
 30
0.0
 10
26.881140
 20
102.036356
 30
0.0
 10
30.106269
 20
102.165982
 30
0.0
 10
32.116237
 20
102.687978
 30
0.0
  0
SPLINE
  5
188
100
AcDbEntity
  8
0
 62
5
100
AcDbSpline
 70
8
 71
3
 72
8
 73
4
 74
0
 40
0
 40
0
 40
0
 40
0
 40
1
 40
1
 40
1
 40
1
 10
22.530435
 20
115.214440
 30
0.0
 10
22.717298
 20
114.958896
 30
0.0
 10
22.773513
 20
114.966871
 30
0.0
 10
22.966786
 20
115.276350
 30
0.0
  0
SPLINE
  5
189
100
AcDbEntity
  8
0
 62
5
100
AcDbSpline
 70
8
 71
3
 72
8
 73
4
 74
0
 40
0
 40
0
 40
0
 40
0
 40
1
 40
1
 40
1
 40
1
 10
16.654028
 20
110.813133
 30
0.0
 10
16.075096
 20
111.730053
 30
0.0
 10
15.471348
 20
113.743150
 30
0.0
 10
15.677362
 20
114.069748
 30
0.0
  0
SPLINE
  5
18a
100
AcDbEntity
  8
0
 62
5
100
AcDbSpline
 70
8
 71
3
 72
8
 73
4
 74
0
 40
0
 40
0
 40
0
 40
0
 40
1
 40
1
 40
1
 40
1
 10
34.548856
 20
114.547888
 30
0.0
 10
34.494302
 20
114.683031
 30
0.0
 10
34.449715
 20
114.572445
 30
0.0
 10
34.449715
 20
114.302179
 30
0.0
  0
SPLINE
  5
18b
100
AcDbEntity
  8
0
 62
5
100
AcDbSpline
 70
8
 71
3
 72
8
 73
4
 74
0
 40
0
 40
0
 40
0
 40
0
 40
1
 40
1
 40
1
 40
1
 10
34.449715
 20
114.302179
 30
0.0
 10
34.449715
 20
114.031897
 30
0.0
 10
34.494312
 20
113.921331
 30
0.0
 10
34.548856
 20
114.056474
 30
0.0
  0
SPLINE
  5
18c
100
AcDbEntity
  8
0
 62
5
100
AcDbSpline
 70
8
 71
3
 72
8
 73
4
 74
0
 40
0
 40
0
 40
0
 40
0
 40
1
 40
1
 40
1
 40
1
 10
34.548856
 20
114.056474
 30
0.0
 10
34.603415
 20
114.191612
 30
0.0
 10
34.603415
 20
114.412750
 30
0.0
 10
34.548856
 20
114.547888
 30
0.0
  0
SPLINE
  5
18d
100
AcDbEntity
  8
0
 62
5
100
AcDbSpline
 70
8
 71
3
 72
8
 73
4
 74
0
 40
0
 40
0
 40
0
 40
0
 40
1
 40
1
 40
1
 40
1
 10
19.102004
 20
113.827137
 30
0.0
 10
19.093403
 20
113.619929
 30
0.0
 10
19.139905
 20
113.503826
 30
0.0
 10
19.205245
 20
113.569145
 30
0.0
  0
SPLINE
  5
18e
100
AcDbEntity
  8
0
 62
5
100
AcDbSpline
 70
8
 71
3
 72
8
 73
4
 74
0
 40
0
 40
0
 40
0
 40
0
 40
1
 40
1
 40
1
 40
1
 10
19.220713
 20
113.945898
 30
0.0
 10
19.158001
 20
114.102712
 30
0.0
 10
19.111412
 20
114.056144
 30
0.0
 10
19.102004
 20
113.827137
 30
0.0
  0
SPLINE
  5
18f
100
AcDbEntity
  8
0
 62
5
100
AcDbSpline
 70
8
 71
3
 72
8
 73
4
 74
0
 40
0
 40
0
 40
0
 40
0
 40
1
 40
1
 40
1
 40
1
 10
19.205245
 20
113.569145
 30
0.0
 10
19.270553
 20
113.634453
 30
0.0
 10
19.277543
 20
113.804003
 30
0.0
 10
19.220713
 20
113.945898
 30
0.0
  0
SPLINE
  5
190
100
AcDbEntity
  8
0
 62
5
100
AcDbSpline
 70
8
 71
3
 72
8
 73
4
 74
0
 40
0
 40
0
 40
0
 40
0
 40
1
 40
1
 40
1
 40
1
 10
19.413225
 20
112.483940
 30
0.0
 10
19.467784
 20
112.619083
 30
0.0
 10
19.467784
 20
112.840215
 30
0.0
 10
19.413225
 20
112.975353
 30
0.0
  0
SPLINE
  5
191
100
AcDbEntity
  8
0
 62
5
100
AcDbSpline
 70
8
 71
3
 72
8
 73
4
 74
0
 40
0
 40
0
 40
0
 40
0
 40
1
 40
1
 40
1
 40
1
 10
19.314089
 20
112.729644
 30
0.0
 10
19.314089
 20
112.459368
 30
0.0
 10
19.358696
 20
112.348797
 30
0.0
 10
19.413225
 20
112.483940
 30
0.0
  0
SPLINE
  5
192
100
AcDbEntity
  8
0
 62
5
100
AcDbSpline
 70
8
 71
3
 72
8
 73
4
 74
0
 40
0
 40
0
 40
0
 40
0
 40
1
 40
1
 40
1
 40
1
 10
19.413225
 20
112.975353
 30
0.0
 10
19.358671
 20
113.110497
 30
0.0
 10
19.314089
 20
112.999910
 30
0.0
 10
19.314089
 20
112.729644
 30
0.0
  0
SPLINE
  5
193
100
AcDbEntity
  8
0
 62
5
100
AcDbSpline
 70
8
 71
3
 72
8
 73
4
 74
0
 40
0
 40
0
 40
0
 40
0
 40
1
 40
1
 40
1
 40
1
 10
22.852283
 20
114.302179
 30
0.0
 10
22.852283
 20
114.031897
 30
0.0
 10
22.896896
 20
113.921331
 30
0.0
 10
22.951424
 20
114.056474
 30
0.0
  0
SPLINE
  5
194
100
AcDbEntity
  8
0
 62
5
100
AcDbSpline
 70
8
 71
3
 72
8
 73
4
 74
0
 40
0
 40
0
 40
0
 40
0
 40
1
 40
1
 40
1
 40
1
 10
22.951424
 20
114.547888
 30
0.0
 10
22.896870
 20
114.683031
 30
0.0
 10
22.852283
 20
114.572445
 30
0.0
 10
22.852283
 20
114.302179
 30
0.0
  0
SPLINE
  5
195
100
AcDbEntity
  8
0
 62
5
100
AcDbSpline
 70
8
 71
3
 72
8
 73
4
 74
0
 40
0
 40
0
 40
0
 40
0
 40
1
 40
1
 40
1
 40
1
 10
22.951424
 20
114.056474
 30
0.0
 10
23.005979
 20
114.191612
 30
0.0
 10
23.005979
 20
114.412750
 30
0.0
 10
22.951424
 20
114.547888
 30
0.0
  0
SPLINE
  5
196
100
AcDbEntity
  8
0
 62
5
100
AcDbSpline
 70
8
 71
3
 72
8
 73
4
 74
0
 40
0
 40
0
 40
0
 40
0
 40
1
 40
1
 40
1
 40
1
 10
23.033339
 20
113.040875
 30
0.0
 10
23.024739
 20
112.833662
 30
0.0
 10
23.071247
 20
112.717564
 30
0.0
 10
23.136580
 20
112.782878
 30
0.0
  0
SPLINE
  5
197
100
AcDbEntity
  8
0
 62
5
100
AcDbSpline
 70
8
 71
3
 72
8
 73
4
 74
0
 40
0
 40
0
 40
0
 40
0
 40
1
 40
1
 40
1
 40
1
 10
23.152049
 20
113.159636
 30
0.0
 10
23.089336
 20
113.316445
 30
0.0
 10
23.042748
 20
113.269882
 30
0.0
 10
23.033339
 20
113.040875
 30
0.0
  0
SPLINE
  5
198
100
AcDbEntity
  8
0
 62
5
100
AcDbSpline
 70
8
 71
3
 72
8
 73
4
 74
0
 40
0
 40
0
 40
0
 40
0
 40
1
 40
1
 40
1
 40
1
 10
23.136580
 20
112.782878
 30
0.0
 10
23.201889
 20
112.848186
 30
0.0
 10
23.208879
 20
113.017741
 30
0.0
 10
23.152049
 20
113.159636
 30
0.0
  0
SPLINE
  5
199
100
AcDbEntity
  8
0
 62
5
100
AcDbSpline
 70
8
 71
3
 72
8
 73
4
 74
0
 40
0
 40
0
 40
0
 40
0
 40
1
 40
1
 40
1
 40
1
 10
37.791354
 20
117.054116
 30
0.0
 10
37.791354
 20
116.783835
 30
0.0
 10
37.835962
 20
116.673269
 30
0.0
 10
37.890490
 20
116.808407
 30
0.0
  0
SPLINE
  5
19a
100
AcDbEntity
  8
0
 62
5
100
AcDbSpline
 70
8
 71
3
 72
8
 73
4
 74
0
 40
0
 40
0
 40
0
 40
0
 40
1
 40
1
 40
1
 40
1
 10
37.890490
 20
117.299820
 30
0.0
 10
37.835936
 20
117.434964
 30
0.0
 10
37.791354
 20
117.324392
 30
0.0
 10
37.791354
 20
117.054116
 30
0.0
  0
SPLINE
  5
19b
100
AcDbEntity
  8
0
 62
5
100
AcDbSpline
 70
8
 71
3
 72
8
 73
4
 74
0
 40
0
 40
0
 40
0
 40
0
 40
1
 40
1
 40
1
 40
1
 10
37.890490
 20
116.808407
 30
0.0
 10
37.945049
 20
116.943550
 30
0.0
 10
37.945049
 20
117.164682
 30
0.0
 10
37.890490
 20
117.299820
 30
0.0
  0
SPLINE
  5
19c
100
AcDbEntity
  8
0
 62
5
100
AcDbSpline
 70
8
 71
3
 72
8
 73
4
 74
0
 40
0
 40
0
 40
0
 40
0
 40
1
 40
1
 40
1
 40
1
 10
37.987905
 20
115.874713
 30
0.0
 10
37.987905
 20
115.604431
 30
0.0
 10
38.032502
 20
115.493865
 30
0.0
 10
38.087056
 20
115.629008
 30
0.0
  0
SPLINE
  5
19d
100
AcDbEntity
  8
0
 62
5
100
AcDbSpline
 70
8
 71
3
 72
8
 73
4
 74
0
 40
0
 40
0
 40
0
 40
0
 40
1
 40
1
 40
1
 40
1
 10
38.087056
 20
115.629008
 30
0.0
 10
38.141615
 20
115.764146
 30
0.0
 10
38.141615
 20
115.985279
 30
0.0
 10
38.087056
 20
116.120422
 30
0.0
  0
SPLINE
  5
19e
100
AcDbEntity
  8
0
 62
5
100
AcDbSpline
 70
8
 71
3
 72
8
 73
4
 74
0
 40
0
 40
0
 40
0
 40
0
 40
1
 40
1
 40
1
 40
1
 10
38.087056
 20
116.120422
 30
0.0
 10
38.032502
 20
116.255566
 30
0.0
 10
37.987905
 20
116.144994
 30
0.0
 10
37.987905
 20
115.874713
 30
0.0
  0
SPLINE
  5
19f
100
AcDbEntity
  8
0
 62
5
100
AcDbSpline
 70
8
 71
3
 72
8
 73
4
 74
0
 40
0
 40
0
 40
0
 40
0
 40
1
 40
1
 40
1
 40
1
 10
34.253154
 20
115.481582
 30
0.0
 10
34.253154
 20
115.211300
 30
0.0
 10
34.297747
 20
115.100734
 30
0.0
 10
34.352291
 20
115.235872
 30
0.0
  0
SPLINE
  5
1a0
100
AcDbEntity
  8
0
 62
5
100
AcDbSpline
 70
8
 71
3
 72
8
 73
4
 74
0
 40
0
 40
0
 40
0
 40
0
 40
1
 40
1
 40
1
 40
1
 10
34.352291
 20
115.235872
 30
0.0
 10
34.406850
 20
115.371016
 30
0.0
 10
34.406850
 20
115.592148
 30
0.0
 10
34.352291
 20
115.727286
 30
0.0
  0
SPLINE
  5
1a1
100
AcDbEntity
  8
0
 62
5
100
AcDbSpline
 70
8
 71
3
 72
8
 73
4
 74
0
 40
0
 40
0
 40
0
 40
0
 40
1
 40
1
 40
1
 40
1
 10
34.352291
 20
115.727286
 30
0.0
 10
34.297736
 20
115.862434
 30
0.0
 10
34.253154
 20
115.751873
 30
0.0
 10
34.253154
 20
115.481582
 30
0.0
  0
SPLINE
  5
1a2
100
AcDbEntity
  8
0
 62
5
100
AcDbSpline
 70
8
 71
3
 72
8
 73
4
 74
0
 40
0
 40
0
 40
0
 40
0
 40
1
 40
1
 40
1
 40
1
 10
30.031883
 20
115.518432
 30
0.0
 10
29.969165
 20
115.675246
 30
0.0
 10
29.922581
 20
115.628678
 30
0.0
 10
29.913173
 20
115.399672
 30
0.0
  0
SPLINE
  5
1a3
100
AcDbEntity
  8
0
 62
5
100
AcDbSpline
 70
8
 71
3
 72
8
 73
4
 74
0
 40
0
 40
0
 40
0
 40
0
 40
1
 40
1
 40
1
 40
1
 10
30.016409
 20
115.141679
 30
0.0
 10
30.081717
 20
115.206987
 30
0.0
 10
30.088708
 20
115.376537
 30
0.0
 10
30.031883
 20
115.518432
 30
0.0
  0
SPLINE
  5
1a4
100
AcDbEntity
  8
0
 62
5
100
AcDbSpline
 70
8
 71
3
 72
8
 73
4
 74
0
 40
0
 40
0
 40
0
 40
0
 40
1
 40
1
 40
1
 40
1
 10
29.913173
 20
115.399672
 30
0.0
 10
29.904568
 20
115.192464
 30
0.0
 10
29.951091
 20
115.076365
 30
0.0
 10
30.016409
 20
115.141679
 30
0.0
  0
SPLINE
  5
1a5
100
AcDbEntity
  8
0
 62
5
100
AcDbSpline
 70
8
 71
3
 72
8
 73
4
 74
0
 40
0
 40
0
 40
0
 40
0
 40
1
 40
1
 40
1
 40
1
 10
26.374968
 20
113.827137
 30
0.0
 10
26.366368
 20
113.619929
 30
0.0
 10
26.412876
 20
113.503826
 30
0.0
 10
26.478209
 20
113.569145
 30
0.0
  0
SPLINE
  5
1a6
100
AcDbEntity
  8
0
 62
5
100
AcDbSpline
 70
8
 71
3
 72
8
 73
4
 74
0
 40
0
 40
0
 40
0
 40
0
 40
1
 40
1
 40
1
 40
1
 10
26.478209
 20
113.569145
 30
0.0
 10
26.543518
 20
113.634453
 30
0.0
 10
26.550508
 20
113.804003
 30
0.0
 10
26.493678
 20
113.945898
 30
0.0
  0
SPLINE
  5
1a7
100
AcDbEntity
  8
0
 62
5
100
AcDbSpline
 70
8
 71
3
 72
8
 73
4
 74
0
 40
0
 40
0
 40
0
 40
0
 40
1
 40
1
 40
1
 40
1
 10
26.493678
 20
113.945898
 30
0.0
 10
26.430965
 20
114.102712
 30
0.0
 10
26.384377
 20
114.056144
 30
0.0
 10
26.374968
 20
113.827137
 30
0.0
  0
LINE
  5
1a8
100
AcDbEntity
  8
0
 62
5
100
AcDbLine
 10
21.936689
 20
90.642195
 30
0.0
 11
31.765026
 21
94.940363
 31
0.0
  0
LINE
  5
1a9
100
AcDbEntity
  8
0
 62
5
100
AcDbLine
 10
31.765026
 20
94.940363
 30
0.0
 11
44.738427
 21
95.136918
 31
0.0
  0
LINE
  5
1aa
100
AcDbEntity
  8
0
 62
5
100
AcDbLine
 10
44.738427
 20
95.136918
 30
0.0
 11
44.788749
 21
110.911395
 31
0.0
  0
LINE
  5
1ab
100
AcDbEntity
  8
0
 62
5
100
AcDbLine
 10
44.788749
 20
110.911395
 30
0.0
 11
44.839057
 21
126.685877
 31
0.0
  0
LINE
  5
1ac
100
AcDbEntity
  8
0
 62
5
100
AcDbLine
 10
44.839057
 20
126.685877
 30
0.0
 11
41.298515
 21
126.685877
 31
0.0
  0
LINE
  5
1ad
100
AcDbEntity
  8
0
 62
5
100
AcDbLine
 10
41.298515
 20
126.685877
 30
0.0
 11
41.298515
 21
127.948440
 31
0.0
  0
LINE
  5
1ae
100
AcDbEntity
  8
0
 62
5
100
AcDbLine
 10
40.708823
 20
127.936070
 30
0.0
 11
40.708823
 21
126.685882
 31
0.0
  0
LINE
  5
1af
100
AcDbEntity
  8
0
 62
5
100
AcDbLine
 10
40.708823
 20
126.685882
 30
0.0
 11
16.334557
 21
126.685882
 31
0.0
  0
LINE
  5
1b0
100
AcDbEntity
  8
0
 62
5
100
AcDbLine
 10
16.334557
 20
126.685882
 30
0.0
 11
16.334557
 21
127.936070
 31
0.0
  0
LINE
  5
1b1
100
AcDbEntity
  8
0
 62
5
100
AcDbLine
 10
15.744860
 20
127.948445
 30
0.0
 11
15.744860
 21
126.685882
 31
0.0
  0
LINE
  5
1b2
100
AcDbEntity
  8
0
 62
5
100
AcDbLine
 10
15.744860
 20
126.685882
 30
0.0
 11
12.663810
 21
126.685882
 31
0.0
  0
LINE
  5
1b3
100
AcDbEntity
  8
0
 62
5
100
AcDbLine
 10
12.663810
 20
126.685882
 30
0.0
 11
12.533782
 21
118.282658
 31
0.0
  0
LINE
  5
1b4
100
AcDbEntity
  8
0
 62
5
100
AcDbLine
 10
14.734011
 20
94.603711
 30
0.0
 11
16.755791
 21
94.547232
 31
0.0
  0
LINE
  5
1b5
100
AcDbEntity
  8
0
 62
5
100
AcDbLine
 10
16.755791
 20
94.547232
 30
0.0
 11
14.073901
 21
90.647250
 31
0.0
  0
LINE
  5
1b6
100
AcDbEntity
  8
0
 62
5
100
AcDbLine
 10
29.897639
 20
132.779449
 30
0.0
 11
28.914806
 21
132.779449
 31
0.0
  0
LINE
  5
1b7
100
AcDbEntity
  8
0
 62
5
100
AcDbLine
 10
28.914806
 20
132.779449
 30
0.0
 11
28.914806
 21
128.848113
 31
0.0
  0
LINE
  5
1b8
100
AcDbEntity
  8
0
 62
5
100
AcDbLine
 10
28.914806
 20
128.848113
 30
0.0
 11
29.897639
 21
128.848113
 31
0.0
  0
LINE
  5
1b9
100
AcDbEntity
  8
0
 62
5
100
AcDbLine
 10
29.897639
 20
128.848113
 30
0.0
 11
29.897639
 21
132.779449
 31
0.0
  0
LINE
  5
1ba
100
AcDbEntity
  8
0
 62
5
100
AcDbLine
 10
28.128539
 20
133.958852
 30
0.0
 11
27.145706
 21
133.958852
 31
0.0
  0
LINE
  5
1bb
100
AcDbEntity
  8
0
 62
5
100
AcDbLine
 10
27.145706
 20
133.958852
 30
0.0
 11
27.145706
 21
127.668715
 31
0.0
  0
LINE
  5
1bc
100
AcDbEntity
  8
0
 62
5
100
AcDbLine
 10
27.145706
 20
127.668715
 30
0.0
 11
28.128539
 21
127.668715
 31
0.0
  0
LINE
  5
1bd
100
AcDbEntity
  8
0
 62
5
100
AcDbLine
 10
28.128539
 20
127.668715
 30
0.0
 11
28.128539
 21
133.958852
 31
0.0
  0
LINE
  5
1be
100
AcDbEntity
  8
0
 62
5
100
AcDbLine
 10
13.607135
 20
114.064302
 30
0.0
 11
13.631636
 21
112.827932
 31
0.0
  0
LINE
  5
1bf
100
AcDbEntity
  8
0
 62
5
100
AcDbLine
 10
13.631636
 20
112.827932
 30
0.0
 11
13.777148
 21
113.818364
 31
0.0
  0
LINE
  5
1c0
100
AcDbEntity
  8
0
 62
5
100
AcDbLine
 10
18.398495
 20
107.638885
 30
0.0
 11
18.889909
 21
108.016552
 31
0.0
  0
LINE
  5
1c1
100
AcDbEntity
  8
0
 62
5
100
AcDbLine
 10
19.283045
 20
106.725683
 30
0.0
 11
18.398495
 21
107.638885
 31
0.0
  0
LINE
  5
1c2
100
AcDbEntity
  8
0
 62
5
100
AcDbLine
 10
23.214355
 20
112.227430
 30
0.0
 11
23.214355
 21
111.794310
 31
0.0
  0
LINE
  5
1c3
100
AcDbEntity
  8
0
 62
5
100
AcDbLine
 10
23.498759
 20
111.821391
 30
0.0
 11
23.214355
 21
112.227430
 31
0.0
  0
LINE
  5
1c4
100
AcDbEntity
  8
0
 62
5
100
AcDbLine
 10
38.055143
 20
113.821138
 30
0.0
 11
36.592759
 21
113.577110
 31
0.0
  0
LINE
  5
1c5
100
AcDbEntity
  8
0
 62
5
100
AcDbLine
 10
38.174686
 20
114.602213
 30
0.0
 11
38.055143
 21
113.821138
 31
0.0
  0
LINE
  5
1c6
100
AcDbEntity
  8
0
 62
1
100
AcDbLine
 10
162.000000
 20
141.000000
 30
0.0
 11
3.000000
 21
141.000000
 31
0.0
  0
LINE
  5
1c7
100
AcDbEntity
  8
0
 62
1
100
AcDbLine
 10
165.000000
 20
3.000000
 30
0.0
 11
165.000000
 21
138.000000
 31
0.0
  0
LINE
  5
1c8
100
AcDbEntity
  8
0
 62
1
100
AcDbLine
 10
3.000000
 20
0.000000
 30
0.0
 11
162.000000
 21
0.000000
 31
0.0
  0
LINE
  5
1c9
100
AcDbEntity
  8
0
 62
1
100
AcDbLine
 10
0.000000
 20
138.000000
 30
0.0
 11
0.000000
 21
3.000000
 31
0.0
  0
SPLINE
  5
1ca
100
AcDbEntity
  8
0
 62
1
100
AcDbSpline
 70
8
 71
3
 72
8
 73
4
 74
0
 40
0
 40
0
 40
0
 40
0
 40
1
 40
1
 40
1
 40
1
 10
0.000000
 20
138.000000
 30
0.0
 10
0.795649
 20
138.000000
 30
0.0
 10
1.558711
 20
138.316071
 30
0.0
 10
2.121320
 20
138.878680
 30
0.0
  0
SPLINE
  5
1cb
100
AcDbEntity
  8
0
 62
1
100
AcDbSpline
 70
8
 71
3
 72
8
 73
4
 74
0
 40
0
 40
0
 40
0
 40
0
 40
1
 40
1
 40
1
 40
1
 10
2.121320
 20
138.878680
 30
0.0
 10
2.683930
 20
139.441289
 30
0.0
 10
3.000000
 20
140.204351
 30
0.0
 10
3.000000
 20
141.000000
 30
0.0
  0
SPLINE
  5
1cc
100
AcDbEntity
  8
0
 62
1
100
AcDbSpline
 70
8
 71
3
 72
8
 73
4
 74
0
 40
0
 40
0
 40
0
 40
0
 40
1
 40
1
 40
1
 40
1
 10
162.000000
 20
141.000000
 30
0.0
 10
162.000000
 20
139.343146
 30
0.0
 10
163.343146
 20
138.000000
 30
0.0
 10
165.000000
 20
138.000000
 30
0.0
  0
SPLINE
  5
1cd
100
AcDbEntity
  8
0
 62
1
100
AcDbSpline
 70
8
 71
3
 72
8
 73
4
 74
0
 40
0
 40
0
 40
0
 40
0
 40
1
 40
1
 40
1
 40
1
 10
165.000000
 20
3.000000
 30
0.0
 10
163.343146
 20
3.000000
 30
0.0
 10
162.000000
 20
1.656854
 30
0.0
 10
162.000000
 20
0.000000
 30
0.0
  0
SPLINE
  5
1ce
100
AcDbEntity
  8
0
 62
1
100
AcDbSpline
 70
8
 71
3
 72
8
 73
4
 74
0
 40
0
 40
0
 40
0
 40
0
 40
1
 40
1
 40
1
 40
1
 10
3.000000
 20
0.000000
 30
0.0
 10
3.000000
 20
0.795650
 30
0.0
 10
2.683930
 20
1.558711
 30
0.0
 10
2.121320
 20
2.121320
 30
0.0
  0
SPLINE
  5
1cf
100
AcDbEntity
  8
0
 62
1
100
AcDbSpline
 70
8
 71
3
 72
8
 73
4
 74
0
 40
0
 40
0
 40
0
 40
0
 40
1
 40
1
 40
1
 40
1
 10
2.121320
 20
2.121320
 30
0.0
 10
1.558711
 20
2.683930
 30
0.0
 10
0.795649
 20
3.000000
 30
0.0
 10
0.000000
 20
3.000000
 30
0.0
  0
ENDSEC
  0
SECTION
  2
OBJECTS
  0
DICTIONARY
  5
C
330
0
100
AcDbDictionary
  3
ACAD_GROUP
350
D
  3
ACAD_MLINESTYLE
350
17
  0
DICTIONARY
  5
D
330
C
100
AcDbDictionary
  0
DICTIONARY
  5
1A
330
C
100
AcDbDictionary
  0
DICTIONARY
  5
17
330
C
100
AcDbDictionary
  3
STANDARD
350
18
  0
DICTIONARY
  5
19
330
C
100
AcDbDictionary
  0
ENDSEC
  0
EOF
